%TF.GenerationSoftware,KiCad,Pcbnew,9.0.1*%
%TF.CreationDate,2025-04-26T22:33:25+02:00*%
%TF.ProjectId,SmartSwitchTotalGenerischPC,536d6172-7453-4776-9974-6368546f7461,rev?*%
%TF.SameCoordinates,Original*%
%TF.FileFunction,Copper,L1,Top*%
%TF.FilePolarity,Positive*%
%FSLAX46Y46*%
G04 Gerber Fmt 4.6, Leading zero omitted, Abs format (unit mm)*
G04 Created by KiCad (PCBNEW 9.0.1) date 2025-04-26 22:33:25*
%MOMM*%
%LPD*%
G01*
G04 APERTURE LIST*
G04 Aperture macros list*
%AMRoundRect*
0 Rectangle with rounded corners*
0 $1 Rounding radius*
0 $2 $3 $4 $5 $6 $7 $8 $9 X,Y pos of 4 corners*
0 Add a 4 corners polygon primitive as box body*
4,1,4,$2,$3,$4,$5,$6,$7,$8,$9,$2,$3,0*
0 Add four circle primitives for the rounded corners*
1,1,$1+$1,$2,$3*
1,1,$1+$1,$4,$5*
1,1,$1+$1,$6,$7*
1,1,$1+$1,$8,$9*
0 Add four rect primitives between the rounded corners*
20,1,$1+$1,$2,$3,$4,$5,0*
20,1,$1+$1,$4,$5,$6,$7,0*
20,1,$1+$1,$6,$7,$8,$9,0*
20,1,$1+$1,$8,$9,$2,$3,0*%
G04 Aperture macros list end*
%TA.AperFunction,SMDPad,CuDef*%
%ADD10R,1.000000X3.150000*%
%TD*%
%TA.AperFunction,SMDPad,CuDef*%
%ADD11RoundRect,0.250000X0.450000X-0.350000X0.450000X0.350000X-0.450000X0.350000X-0.450000X-0.350000X0*%
%TD*%
%TA.AperFunction,SMDPad,CuDef*%
%ADD12RoundRect,0.250000X-0.325000X-0.450000X0.325000X-0.450000X0.325000X0.450000X-0.325000X0.450000X0*%
%TD*%
%TA.AperFunction,SMDPad,CuDef*%
%ADD13RoundRect,0.175000X0.175000X-0.825000X0.175000X0.825000X-0.175000X0.825000X-0.175000X-0.825000X0*%
%TD*%
%TA.AperFunction,SMDPad,CuDef*%
%ADD14RoundRect,0.250000X0.325000X0.450000X-0.325000X0.450000X-0.325000X-0.450000X0.325000X-0.450000X0*%
%TD*%
%TA.AperFunction,ComponentPad*%
%ADD15R,1.700000X1.700000*%
%TD*%
%TA.AperFunction,ComponentPad*%
%ADD16C,1.700000*%
%TD*%
%TA.AperFunction,ComponentPad*%
%ADD17C,1.524000*%
%TD*%
%TA.AperFunction,ViaPad*%
%ADD18C,0.600000*%
%TD*%
%TA.AperFunction,Conductor*%
%ADD19C,0.500000*%
%TD*%
%TA.AperFunction,Conductor*%
%ADD20C,0.200000*%
%TD*%
%TA.AperFunction,Conductor*%
%ADD21C,0.600000*%
%TD*%
G04 APERTURE END LIST*
D10*
%TO.P,J2,10,NC*%
%TO.N,unconnected-(J2-NC-Pad10)*%
X119920000Y-55570000D03*
%TO.P,J2,9*%
%TO.N,N/C*%
X119920000Y-50520000D03*
%TO.P,J2,8,USB1_GND*%
%TO.N,GND*%
X122460000Y-55570000D03*
%TO.P,J2,7,USB0_GND*%
X122460000Y-50520000D03*
%TO.P,J2,6,USB1_D+*%
%TO.N,Net-(J1-USB1_D+)*%
X125000000Y-55570000D03*
%TO.P,J2,5,USB0_D+*%
%TO.N,Net-(J1-USB0_D+)*%
X125000000Y-50520000D03*
%TO.P,J2,4,USB1_D-*%
%TO.N,Net-(J1-USB1_D-)*%
X127540000Y-55570000D03*
%TO.P,J2,3,USB0_D-*%
%TO.N,Net-(J1-USB0_D-)*%
X127540000Y-50520000D03*
%TO.P,J2,2,USB1_5V*%
%TO.N,Net-(J1-USB1_5V)*%
X130080000Y-55570000D03*
%TO.P,J2,1,USB0_5V*%
%TO.N,+5V*%
X130080000Y-50520000D03*
%TD*%
D11*
%TO.P,R2,1*%
%TO.N,Net-(U1-GPIO0{slash}A0{slash}D0)*%
X113000000Y-49000000D03*
%TO.P,R2,2*%
%TO.N,GND*%
X113000000Y-47000000D03*
%TD*%
D12*
%TO.P,D2,1,K*%
%TO.N,Net-(D2-K)*%
X128975000Y-64000000D03*
%TO.P,D2,2,A*%
%TO.N,GND*%
X131025000Y-64000000D03*
%TD*%
D13*
%TO.P,Q1,1,B*%
%TO.N,Net-(Q1-B)*%
X115050000Y-57700000D03*
%TO.P,Q1,2,E*%
%TO.N,GND*%
X116950000Y-57700000D03*
%TO.P,Q1,3,C*%
%TO.N,/PWR_SW+*%
X116000000Y-54300000D03*
%TD*%
D14*
%TO.P,D1,1,K*%
%TO.N,Net-(D1-K)*%
X114525000Y-64000000D03*
%TO.P,D1,2,A*%
%TO.N,GND*%
X112475000Y-64000000D03*
%TD*%
D15*
%TO.P,J3,1,Pin_1*%
%TO.N,/PWR_LED+*%
X125810000Y-64000000D03*
D16*
%TO.P,J3,2,Pin_2*%
X125810000Y-66540000D03*
%TO.P,J3,3,Pin_3*%
%TO.N,GND*%
X123270000Y-64000000D03*
%TO.P,J3,4,Pin_4*%
X123270000Y-66540000D03*
%TO.P,J3,5,Pin_5*%
%TO.N,/PWR_SW+*%
X120730000Y-64000000D03*
%TO.P,J3,6,Pin_6*%
X120730000Y-66540000D03*
%TO.P,J3,7,Pin_7*%
%TO.N,GND*%
X118190000Y-64000000D03*
%TO.P,J3,8,Pin_8*%
X118190000Y-66540000D03*
%TD*%
D11*
%TO.P,R1,1*%
%TO.N,/PWR_LED+*%
X113000000Y-53000000D03*
%TO.P,R1,2*%
%TO.N,Net-(U1-GPIO0{slash}A0{slash}D0)*%
X113000000Y-51000000D03*
%TD*%
%TO.P,R3,1*%
%TO.N,Net-(Q1-B)*%
X116000000Y-50500000D03*
%TO.P,R3,2*%
%TO.N,Net-(U1-GPIO1{slash}A1{slash}D1)*%
X116000000Y-48500000D03*
%TD*%
D15*
%TO.P,J1,1,USB0_5V*%
%TO.N,+5V*%
X127100000Y-42040000D03*
D16*
%TO.P,J1,2,USB1_5V*%
%TO.N,Net-(J1-USB1_5V)*%
X127100000Y-39500000D03*
%TO.P,J1,3,USB0_D-*%
%TO.N,Net-(J1-USB0_D-)*%
X124560000Y-42040000D03*
%TO.P,J1,4,USB1_D-*%
%TO.N,Net-(J1-USB1_D-)*%
X124560000Y-39500000D03*
%TO.P,J1,5,USB0_D+*%
%TO.N,Net-(J1-USB0_D+)*%
X122020000Y-42040000D03*
%TO.P,J1,6,USB1_D+*%
%TO.N,Net-(J1-USB1_D+)*%
X122020000Y-39500000D03*
%TO.P,J1,7,USB0_GND*%
%TO.N,GND*%
X119480000Y-42040000D03*
%TO.P,J1,8,USB1_GND*%
X119480000Y-39500000D03*
%TO.P,J1,9*%
%TO.N,N/C*%
X116940000Y-42040000D03*
%TO.P,J1,10,NC*%
%TO.N,unconnected-(J1-NC-Pad10)*%
X116940000Y-39500000D03*
%TD*%
D17*
%TO.P,U1,1,GPIO0/A0/D0*%
%TO.N,Net-(U1-GPIO0{slash}A0{slash}D0)*%
X114198500Y-45380000D03*
%TO.P,U1,2,GPIO1/A1/D1*%
%TO.N,Net-(U1-GPIO1{slash}A1{slash}D1)*%
X116738500Y-45380000D03*
%TO.P,U1,3,GPIO2/A2/D2*%
%TO.N,Net-(U1-GPIO2{slash}A2{slash}D2)*%
X119278500Y-45380000D03*
%TO.P,U1,4,GPIO21/D3*%
%TO.N,Net-(U1-GPIO21{slash}D3)*%
X121818500Y-45380000D03*
%TO.P,U1,5,GPIO22/D4/SDA*%
%TO.N,unconnected-(U1-GPIO22{slash}D4{slash}SDA-Pad5)_1*%
X124358500Y-45380000D03*
%TO.P,U1,6,GPIO23/D5/SCL*%
%TO.N,unconnected-(U1-GPIO23{slash}D5{slash}SCL-Pad6)*%
X126898500Y-45380000D03*
%TO.P,U1,7,GPIO16/D6/TX*%
%TO.N,unconnected-(U1-GPIO16{slash}D6{slash}TX-Pad7)_1*%
X129438500Y-45380000D03*
%TO.P,U1,8,GPIO17/D7/RX*%
%TO.N,unconnected-(U1-GPIO17{slash}D7{slash}RX-Pad8)*%
X129438500Y-60620000D03*
%TO.P,U1,9,GPIO19/D8/SCK*%
%TO.N,unconnected-(U1-GPIO19{slash}D8{slash}SCK-Pad9)*%
X126898500Y-60620000D03*
%TO.P,U1,10,GPIO20/D9/MISO*%
%TO.N,unconnected-(U1-GPIO20{slash}D9{slash}MISO-Pad10)*%
X124358500Y-60620000D03*
%TO.P,U1,11,GPIO18/D10/MOSI*%
%TO.N,unconnected-(U1-GPIO18{slash}D10{slash}MOSI-Pad11)*%
X121818500Y-60620000D03*
%TO.P,U1,12,3V3*%
%TO.N,unconnected-(U1-3V3-Pad12)*%
X119278500Y-60620000D03*
%TO.P,U1,13,GND*%
%TO.N,GND*%
X116738500Y-60620000D03*
%TO.P,U1,14,VBUS*%
%TO.N,+5V*%
X114198500Y-60620000D03*
%TD*%
D18*
%TO.N,GND*%
X112000000Y-58500000D03*
X126500000Y-53000000D03*
X128000000Y-66500000D03*
X122000000Y-58500000D03*
X115000000Y-42000000D03*
X117500000Y-47500000D03*
X129500000Y-58500000D03*
X115500000Y-66500000D03*
X117500000Y-52500000D03*
X112500000Y-42000000D03*
%TO.N,Net-(D1-K)*%
X116000000Y-64000000D03*
%TO.N,Net-(D2-K)*%
X127500000Y-64000000D03*
%TD*%
D19*
%TO.N,GND*%
X123270000Y-66520000D02*
X123250000Y-66500000D01*
X123270000Y-64000000D02*
X123270000Y-66540000D01*
X123270000Y-66520000D02*
X123270000Y-66540000D01*
D20*
%TO.N,Net-(D1-K)*%
X116000000Y-64000000D02*
X114525000Y-64000000D01*
%TO.N,Net-(D2-K)*%
X128975000Y-64000000D02*
X127500000Y-64000000D01*
%TO.N,Net-(J1-USB1_D-)*%
X125949000Y-43199000D02*
X125949000Y-40889000D01*
X126500000Y-43750000D02*
X125949000Y-43199000D01*
X128500000Y-54610000D02*
X128500000Y-48750000D01*
X127500000Y-43750000D02*
X126500000Y-43750000D01*
X128250000Y-44500000D02*
X127500000Y-43750000D01*
X127540000Y-55570000D02*
X128500000Y-54610000D01*
X128500000Y-48750000D02*
X128250000Y-48500000D01*
X125949000Y-40889000D02*
X124560000Y-39500000D01*
X128250000Y-48500000D02*
X128250000Y-44500000D01*
%TO.N,Net-(J1-USB0_D+)*%
X123295500Y-45820310D02*
X123918190Y-46443000D01*
X122020000Y-42040000D02*
X123295500Y-43315500D01*
X123918190Y-46443000D02*
X123933000Y-46443000D01*
X123295500Y-43315500D02*
X123295500Y-45820310D01*
X123933000Y-46443000D02*
X125000000Y-47510000D01*
X125000000Y-47510000D02*
X125000000Y-50520000D01*
D21*
%TO.N,Net-(J1-USB1_5V)*%
X131699000Y-53951000D02*
X130080000Y-55570000D01*
X128401000Y-40801000D02*
X131245999Y-40801000D01*
X131245999Y-40801000D02*
X131699000Y-41254001D01*
X127100000Y-39500000D02*
X127142786Y-39500000D01*
X131699000Y-41254001D02*
X131699000Y-53951000D01*
X127100000Y-39500000D02*
X128401000Y-40801000D01*
D20*
%TO.N,Net-(J1-USB1_D+)*%
X120869000Y-42516760D02*
X120869000Y-40651000D01*
X122894500Y-44542260D02*
X120869000Y-42516760D01*
X123752090Y-46844000D02*
X122894500Y-45986410D01*
X120869000Y-40651000D02*
X122020000Y-39500000D01*
X125000000Y-55570000D02*
X123752090Y-54322090D01*
X122894500Y-45986410D02*
X122894500Y-44542260D01*
X123752090Y-54322090D02*
X123752090Y-46844000D01*
D21*
%TO.N,+5V*%
X130701500Y-49898500D02*
X130080000Y-50520000D01*
X127100000Y-42040000D02*
X127140000Y-42000000D01*
X127140000Y-42000000D02*
X130500000Y-42000000D01*
X130701500Y-42201500D02*
X130701500Y-49898500D01*
X130500000Y-42000000D02*
X130701500Y-42201500D01*
D20*
%TO.N,Net-(J1-USB0_D-)*%
X124560000Y-42040000D02*
X125500000Y-42980000D01*
X127540000Y-49040000D02*
X127540000Y-50520000D01*
X125500000Y-47000000D02*
X127540000Y-49040000D01*
X125500000Y-42980000D02*
X125500000Y-47000000D01*
%TO.N,/PWR_LED+*%
X115675500Y-60593690D02*
X115675500Y-62175500D01*
X115675500Y-62175500D02*
X117039000Y-63539000D01*
X113000000Y-57918190D02*
X115675500Y-60593690D01*
X117713240Y-67691000D02*
X124659000Y-67691000D01*
X117039000Y-63539000D02*
X117039000Y-67016760D01*
X124659000Y-67691000D02*
X125810000Y-66540000D01*
X117039000Y-67016760D02*
X117713240Y-67691000D01*
X113000000Y-53000000D02*
X113000000Y-57918190D01*
D19*
X125810000Y-64000000D02*
X125810000Y-66540000D01*
D20*
%TO.N,/PWR_SW+*%
X116000000Y-54300000D02*
X120730000Y-59030000D01*
X120730000Y-59030000D02*
X120730000Y-64000000D01*
D19*
X120730000Y-66540000D02*
X120730000Y-64000000D01*
D20*
%TO.N,Net-(Q1-B)*%
X115050000Y-57700000D02*
X115050000Y-51450000D01*
X115050000Y-51450000D02*
X116000000Y-50500000D01*
%TO.N,Net-(U1-GPIO0{slash}A0{slash}D0)*%
X113000000Y-49000000D02*
X113000000Y-51000000D01*
X113000000Y-49000000D02*
X114198500Y-47801500D01*
X114198500Y-47801500D02*
X114198500Y-45380000D01*
%TO.N,Net-(U1-GPIO1{slash}A1{slash}D1)*%
X116000000Y-48500000D02*
X116000000Y-46118500D01*
X116000000Y-46118500D02*
X116738500Y-45380000D01*
%TD*%
%TA.AperFunction,Conductor*%
%TO.N,GND*%
G36*
X129696488Y-37520185D02*
G01*
X129742243Y-37572989D01*
X129752187Y-37642147D01*
X129723162Y-37705703D01*
X129702337Y-37724815D01*
X129522490Y-37855483D01*
X129522488Y-37855485D01*
X129522487Y-37855485D01*
X129355485Y-38022487D01*
X129355485Y-38022488D01*
X129355483Y-38022490D01*
X129295862Y-38104550D01*
X129216657Y-38213566D01*
X129109433Y-38424003D01*
X129036446Y-38648631D01*
X128999500Y-38881902D01*
X128999500Y-39118097D01*
X129036446Y-39351368D01*
X129109433Y-39575996D01*
X129216657Y-39786433D01*
X129229140Y-39803614D01*
X129252620Y-39869420D01*
X129236795Y-39937474D01*
X129186690Y-39986169D01*
X129128822Y-40000500D01*
X128783940Y-40000500D01*
X128716901Y-39980815D01*
X128696259Y-39964181D01*
X128479843Y-39747765D01*
X128446358Y-39686442D01*
X128445051Y-39640687D01*
X128450500Y-39606287D01*
X128450500Y-39393713D01*
X128417246Y-39183757D01*
X128351557Y-38981588D01*
X128255051Y-38792184D01*
X128255049Y-38792181D01*
X128255048Y-38792179D01*
X128130109Y-38620213D01*
X127979786Y-38469890D01*
X127807820Y-38344951D01*
X127618414Y-38248444D01*
X127618413Y-38248443D01*
X127618412Y-38248443D01*
X127416243Y-38182754D01*
X127416241Y-38182753D01*
X127416240Y-38182753D01*
X127254957Y-38157208D01*
X127206287Y-38149500D01*
X126993713Y-38149500D01*
X126945042Y-38157208D01*
X126783760Y-38182753D01*
X126581585Y-38248444D01*
X126392179Y-38344951D01*
X126220213Y-38469890D01*
X126069890Y-38620213D01*
X125944949Y-38792182D01*
X125940484Y-38800946D01*
X125892509Y-38851742D01*
X125824688Y-38868536D01*
X125758553Y-38845998D01*
X125719516Y-38800946D01*
X125715050Y-38792182D01*
X125590109Y-38620213D01*
X125439786Y-38469890D01*
X125267820Y-38344951D01*
X125078414Y-38248444D01*
X125078413Y-38248443D01*
X125078412Y-38248443D01*
X124876243Y-38182754D01*
X124876241Y-38182753D01*
X124876240Y-38182753D01*
X124714957Y-38157208D01*
X124666287Y-38149500D01*
X124453713Y-38149500D01*
X124405042Y-38157208D01*
X124243760Y-38182753D01*
X124041585Y-38248444D01*
X123852179Y-38344951D01*
X123680213Y-38469890D01*
X123529890Y-38620213D01*
X123404949Y-38792182D01*
X123400484Y-38800946D01*
X123352509Y-38851742D01*
X123284688Y-38868536D01*
X123218553Y-38845998D01*
X123179516Y-38800946D01*
X123175050Y-38792182D01*
X123050109Y-38620213D01*
X122899786Y-38469890D01*
X122727820Y-38344951D01*
X122538414Y-38248444D01*
X122538413Y-38248443D01*
X122538412Y-38248443D01*
X122336243Y-38182754D01*
X122336241Y-38182753D01*
X122336240Y-38182753D01*
X122174957Y-38157208D01*
X122126287Y-38149500D01*
X121913713Y-38149500D01*
X121865042Y-38157208D01*
X121703760Y-38182753D01*
X121501585Y-38248444D01*
X121312179Y-38344951D01*
X121140213Y-38469890D01*
X120989890Y-38620213D01*
X120864949Y-38792182D01*
X120860202Y-38801499D01*
X120812227Y-38852293D01*
X120744405Y-38869087D01*
X120678271Y-38846548D01*
X120639234Y-38801495D01*
X120634626Y-38792452D01*
X120595270Y-38738282D01*
X120595269Y-38738282D01*
X119962962Y-39370590D01*
X119945925Y-39307007D01*
X119880099Y-39192993D01*
X119787007Y-39099901D01*
X119672993Y-39034075D01*
X119609409Y-39017037D01*
X120241716Y-38384728D01*
X120187550Y-38345375D01*
X119998217Y-38248904D01*
X119796129Y-38183242D01*
X119586246Y-38150000D01*
X119373754Y-38150000D01*
X119163872Y-38183242D01*
X119163869Y-38183242D01*
X118961782Y-38248904D01*
X118772439Y-38345380D01*
X118718282Y-38384727D01*
X118718282Y-38384728D01*
X119350591Y-39017037D01*
X119287007Y-39034075D01*
X119172993Y-39099901D01*
X119079901Y-39192993D01*
X119014075Y-39307007D01*
X118997037Y-39370591D01*
X118364728Y-38738282D01*
X118364727Y-38738282D01*
X118325380Y-38792440D01*
X118325376Y-38792446D01*
X118320760Y-38801505D01*
X118272781Y-38852297D01*
X118204959Y-38869087D01*
X118138826Y-38846543D01*
X118099794Y-38801493D01*
X118095051Y-38792184D01*
X118095049Y-38792181D01*
X118095048Y-38792179D01*
X117970109Y-38620213D01*
X117819786Y-38469890D01*
X117647820Y-38344951D01*
X117458414Y-38248444D01*
X117458413Y-38248443D01*
X117458412Y-38248443D01*
X117256243Y-38182754D01*
X117256241Y-38182753D01*
X117256240Y-38182753D01*
X117094957Y-38157208D01*
X117046287Y-38149500D01*
X116833713Y-38149500D01*
X116785042Y-38157208D01*
X116623760Y-38182753D01*
X116421585Y-38248444D01*
X116232179Y-38344951D01*
X116060213Y-38469890D01*
X115909890Y-38620213D01*
X115784951Y-38792179D01*
X115688444Y-38981585D01*
X115622753Y-39183760D01*
X115589500Y-39393713D01*
X115589500Y-39606286D01*
X115620753Y-39803614D01*
X115622754Y-39816243D01*
X115675153Y-39977511D01*
X115688444Y-40018414D01*
X115784951Y-40207820D01*
X115909890Y-40379786D01*
X116060213Y-40530109D01*
X116232182Y-40655050D01*
X116240946Y-40659516D01*
X116291742Y-40707491D01*
X116308536Y-40775312D01*
X116285998Y-40841447D01*
X116240946Y-40880484D01*
X116232182Y-40884949D01*
X116060213Y-41009890D01*
X115909890Y-41160213D01*
X115784951Y-41332179D01*
X115688444Y-41521585D01*
X115622753Y-41723760D01*
X115621291Y-41732993D01*
X115589500Y-41933713D01*
X115589500Y-42146287D01*
X115622754Y-42356243D01*
X115678011Y-42526307D01*
X115688444Y-42558414D01*
X115784951Y-42747820D01*
X115909890Y-42919786D01*
X116060213Y-43070109D01*
X116232179Y-43195048D01*
X116232181Y-43195049D01*
X116232184Y-43195051D01*
X116421588Y-43291557D01*
X116623757Y-43357246D01*
X116833713Y-43390500D01*
X116833714Y-43390500D01*
X117046286Y-43390500D01*
X117046287Y-43390500D01*
X117256243Y-43357246D01*
X117458412Y-43291557D01*
X117647816Y-43195051D01*
X117734138Y-43132335D01*
X117819786Y-43070109D01*
X117819788Y-43070106D01*
X117819792Y-43070104D01*
X117970104Y-42919792D01*
X117970106Y-42919788D01*
X117970109Y-42919786D01*
X118042472Y-42820185D01*
X118095051Y-42747816D01*
X118099793Y-42738508D01*
X118147763Y-42687711D01*
X118215583Y-42670911D01*
X118281719Y-42693445D01*
X118320763Y-42738500D01*
X118325373Y-42747547D01*
X118364728Y-42801716D01*
X118997037Y-42169408D01*
X119014075Y-42232993D01*
X119079901Y-42347007D01*
X119172993Y-42440099D01*
X119287007Y-42505925D01*
X119350590Y-42522962D01*
X118718282Y-43155269D01*
X118718282Y-43155270D01*
X118772449Y-43194624D01*
X118961782Y-43291095D01*
X119163870Y-43356757D01*
X119373754Y-43390000D01*
X119586246Y-43390000D01*
X119796127Y-43356757D01*
X119796130Y-43356757D01*
X119998217Y-43291095D01*
X120187554Y-43194622D01*
X120241716Y-43155270D01*
X120241717Y-43155270D01*
X119609408Y-42522962D01*
X119672993Y-42505925D01*
X119787007Y-42440099D01*
X119880099Y-42347007D01*
X119945925Y-42232993D01*
X119962962Y-42169408D01*
X120232180Y-42438626D01*
X120265665Y-42499949D01*
X120268499Y-42526307D01*
X120268499Y-42595814D01*
X120268498Y-42595814D01*
X120309423Y-42748545D01*
X120338358Y-42798660D01*
X120338359Y-42798664D01*
X120338360Y-42798664D01*
X120388479Y-42885474D01*
X120388481Y-42885477D01*
X120507349Y-43004345D01*
X120507355Y-43004350D01*
X121476939Y-43973935D01*
X121510424Y-44035258D01*
X121505440Y-44104950D01*
X121463568Y-44160883D01*
X121427576Y-44179547D01*
X121333870Y-44209993D01*
X121333867Y-44209994D01*
X121156805Y-44300213D01*
X120996033Y-44417021D01*
X120855521Y-44557533D01*
X120738713Y-44718305D01*
X120658985Y-44874780D01*
X120611010Y-44925576D01*
X120543189Y-44942371D01*
X120477054Y-44919833D01*
X120438015Y-44874780D01*
X120358286Y-44718305D01*
X120241481Y-44557536D01*
X120100964Y-44417019D01*
X119940194Y-44300213D01*
X119932124Y-44296101D01*
X119763132Y-44209994D01*
X119763129Y-44209993D01*
X119574137Y-44148587D01*
X119463008Y-44130986D01*
X119377861Y-44117500D01*
X119179139Y-44117500D01*
X119113714Y-44127862D01*
X118982862Y-44148587D01*
X118793870Y-44209993D01*
X118793867Y-44209994D01*
X118616805Y-44300213D01*
X118456033Y-44417021D01*
X118315521Y-44557533D01*
X118198713Y-44718305D01*
X118118985Y-44874780D01*
X118071010Y-44925576D01*
X118003189Y-44942371D01*
X117937054Y-44919833D01*
X117898015Y-44874780D01*
X117818286Y-44718305D01*
X117701481Y-44557536D01*
X117560964Y-44417019D01*
X117400194Y-44300213D01*
X117392124Y-44296101D01*
X117223132Y-44209994D01*
X117223129Y-44209993D01*
X117034137Y-44148587D01*
X116923008Y-44130986D01*
X116837861Y-44117500D01*
X116639139Y-44117500D01*
X116573714Y-44127862D01*
X116442862Y-44148587D01*
X116253870Y-44209993D01*
X116253867Y-44209994D01*
X116076805Y-44300213D01*
X115916033Y-44417021D01*
X115775521Y-44557533D01*
X115658713Y-44718305D01*
X115578985Y-44874780D01*
X115531010Y-44925576D01*
X115463189Y-44942371D01*
X115397054Y-44919833D01*
X115358015Y-44874780D01*
X115278286Y-44718305D01*
X115161481Y-44557536D01*
X115020964Y-44417019D01*
X114860194Y-44300213D01*
X114852124Y-44296101D01*
X114683132Y-44209994D01*
X114683129Y-44209993D01*
X114494137Y-44148587D01*
X114383008Y-44130986D01*
X114297861Y-44117500D01*
X114099139Y-44117500D01*
X114033714Y-44127862D01*
X113902862Y-44148587D01*
X113713870Y-44209993D01*
X113713867Y-44209994D01*
X113536805Y-44300213D01*
X113376033Y-44417021D01*
X113235521Y-44557533D01*
X113118713Y-44718305D01*
X113028494Y-44895367D01*
X113028493Y-44895370D01*
X112967087Y-45084362D01*
X112936000Y-45280639D01*
X112936000Y-45479360D01*
X112967087Y-45675639D01*
X112987246Y-45737683D01*
X112989241Y-45807524D01*
X112953160Y-45867357D01*
X112890459Y-45898184D01*
X112869315Y-45900000D01*
X112500028Y-45900000D01*
X112500012Y-45900001D01*
X112397302Y-45910494D01*
X112230880Y-45965641D01*
X112230875Y-45965643D01*
X112081654Y-46057684D01*
X111957684Y-46181654D01*
X111865643Y-46330875D01*
X111865641Y-46330880D01*
X111810494Y-46497302D01*
X111810493Y-46497309D01*
X111800000Y-46600013D01*
X111800000Y-46750000D01*
X112876000Y-46750000D01*
X112943039Y-46769685D01*
X112988794Y-46822489D01*
X113000000Y-46874000D01*
X113000000Y-47126000D01*
X112980315Y-47193039D01*
X112927511Y-47238794D01*
X112876000Y-47250000D01*
X111800001Y-47250000D01*
X111800001Y-47399986D01*
X111810494Y-47502697D01*
X111865641Y-47669119D01*
X111865643Y-47669124D01*
X111957684Y-47818345D01*
X112051304Y-47911965D01*
X112084789Y-47973288D01*
X112079805Y-48042980D01*
X112051305Y-48087327D01*
X111957287Y-48181345D01*
X111865187Y-48330663D01*
X111865185Y-48330668D01*
X111837349Y-48414670D01*
X111810001Y-48497203D01*
X111810001Y-48497204D01*
X111810000Y-48497204D01*
X111799500Y-48599983D01*
X111799500Y-49400001D01*
X111799501Y-49400019D01*
X111810000Y-49502796D01*
X111810001Y-49502799D01*
X111865185Y-49669331D01*
X111865187Y-49669336D01*
X111957289Y-49818657D01*
X112050951Y-49912319D01*
X112084436Y-49973642D01*
X112079452Y-50043334D01*
X112050951Y-50087681D01*
X111957289Y-50181342D01*
X111865187Y-50330663D01*
X111865186Y-50330666D01*
X111810001Y-50497203D01*
X111810001Y-50497204D01*
X111810000Y-50497204D01*
X111799500Y-50599983D01*
X111799500Y-51400001D01*
X111799501Y-51400019D01*
X111810000Y-51502796D01*
X111810001Y-51502799D01*
X111865185Y-51669331D01*
X111865187Y-51669336D01*
X111957289Y-51818657D01*
X112050951Y-51912319D01*
X112084436Y-51973642D01*
X112079452Y-52043334D01*
X112050951Y-52087681D01*
X111957289Y-52181342D01*
X111865187Y-52330663D01*
X111865185Y-52330668D01*
X111863056Y-52337093D01*
X111810001Y-52497203D01*
X111810001Y-52497204D01*
X111810000Y-52497204D01*
X111799500Y-52599983D01*
X111799500Y-53400001D01*
X111799501Y-53400019D01*
X111810000Y-53502796D01*
X111810001Y-53502799D01*
X111865185Y-53669331D01*
X111865186Y-53669334D01*
X111957288Y-53818656D01*
X112081344Y-53942712D01*
X112230666Y-54034814D01*
X112314505Y-54062595D01*
X112371948Y-54102366D01*
X112398772Y-54166882D01*
X112399500Y-54180300D01*
X112399500Y-57831520D01*
X112399499Y-57831538D01*
X112399499Y-57997244D01*
X112399498Y-57997244D01*
X112440423Y-58149975D01*
X112469358Y-58200090D01*
X112469359Y-58200094D01*
X112469360Y-58200094D01*
X112519479Y-58286904D01*
X112519481Y-58286907D01*
X112638349Y-58405775D01*
X112638355Y-58405780D01*
X113572451Y-59339876D01*
X113605936Y-59401199D01*
X113600952Y-59470891D01*
X113559080Y-59526824D01*
X113541076Y-59538036D01*
X113536809Y-59540210D01*
X113376033Y-59657021D01*
X113235521Y-59797533D01*
X113118713Y-59958305D01*
X113028494Y-60135367D01*
X113028493Y-60135370D01*
X112967087Y-60324362D01*
X112936000Y-60520639D01*
X112936000Y-60719360D01*
X112967087Y-60915637D01*
X113028493Y-61104629D01*
X113028494Y-61104632D01*
X113118574Y-61281422D01*
X113118713Y-61281694D01*
X113235519Y-61442464D01*
X113376036Y-61582981D01*
X113536806Y-61699787D01*
X113623649Y-61744035D01*
X113713867Y-61790005D01*
X113713870Y-61790006D01*
X113808366Y-61820709D01*
X113902864Y-61851413D01*
X114099139Y-61882500D01*
X114099140Y-61882500D01*
X114297860Y-61882500D01*
X114297861Y-61882500D01*
X114494136Y-61851413D01*
X114683132Y-61790005D01*
X114860194Y-61699787D01*
X114863239Y-61697575D01*
X114878114Y-61686768D01*
X114943920Y-61663287D01*
X115011974Y-61679112D01*
X115060669Y-61729217D01*
X115075000Y-61787085D01*
X115075000Y-62088830D01*
X115074999Y-62088848D01*
X115074999Y-62254554D01*
X115074998Y-62254554D01*
X115115923Y-62407285D01*
X115144858Y-62457400D01*
X115144859Y-62457404D01*
X115144860Y-62457404D01*
X115194979Y-62544214D01*
X115194981Y-62544217D01*
X115313849Y-62663085D01*
X115313855Y-62663090D01*
X115323728Y-62672963D01*
X115357213Y-62734286D01*
X115352229Y-62803978D01*
X115310357Y-62859911D01*
X115244893Y-62884328D01*
X115176620Y-62869476D01*
X115170953Y-62866184D01*
X115169343Y-62865191D01*
X115169338Y-62865188D01*
X115169334Y-62865186D01*
X115002797Y-62810001D01*
X115002795Y-62810000D01*
X114900010Y-62799500D01*
X114149998Y-62799500D01*
X114149980Y-62799501D01*
X114047203Y-62810000D01*
X114047200Y-62810001D01*
X113880668Y-62865185D01*
X113880663Y-62865187D01*
X113731342Y-62957289D01*
X113607288Y-63081343D01*
X113607283Y-63081349D01*
X113605241Y-63084661D01*
X113603247Y-63086453D01*
X113602807Y-63087011D01*
X113602711Y-63086935D01*
X113553291Y-63131383D01*
X113484328Y-63142602D01*
X113420247Y-63114755D01*
X113394168Y-63084656D01*
X113392319Y-63081659D01*
X113392316Y-63081655D01*
X113268345Y-62957684D01*
X113119124Y-62865643D01*
X113119119Y-62865641D01*
X112952697Y-62810494D01*
X112952690Y-62810493D01*
X112849986Y-62800000D01*
X112725000Y-62800000D01*
X112725000Y-65199999D01*
X112849972Y-65199999D01*
X112849986Y-65199998D01*
X112952697Y-65189505D01*
X113119119Y-65134358D01*
X113119124Y-65134356D01*
X113268345Y-65042315D01*
X113392318Y-64918342D01*
X113394165Y-64915348D01*
X113395969Y-64913724D01*
X113396798Y-64912677D01*
X113396976Y-64912818D01*
X113446110Y-64868621D01*
X113515073Y-64857396D01*
X113579156Y-64885236D01*
X113605242Y-64915339D01*
X113607288Y-64918656D01*
X113731344Y-65042712D01*
X113880666Y-65134814D01*
X114047203Y-65189999D01*
X114149991Y-65200500D01*
X114900008Y-65200499D01*
X114900016Y-65200498D01*
X114900019Y-65200498D01*
X114956302Y-65194748D01*
X115002797Y-65189999D01*
X115169334Y-65134814D01*
X115318656Y-65042712D01*
X115442712Y-64918656D01*
X115526329Y-64783089D01*
X115578277Y-64736365D01*
X115647239Y-64725142D01*
X115679318Y-64733624D01*
X115766503Y-64769737D01*
X115916774Y-64799628D01*
X115921153Y-64800499D01*
X115921156Y-64800500D01*
X115921158Y-64800500D01*
X116078844Y-64800500D01*
X116078845Y-64800499D01*
X116233497Y-64769737D01*
X116267047Y-64755839D01*
X116336517Y-64748371D01*
X116398996Y-64779646D01*
X116434648Y-64839735D01*
X116438500Y-64870401D01*
X116438500Y-66930090D01*
X116438499Y-66930108D01*
X116438499Y-67095814D01*
X116438498Y-67095814D01*
X116438499Y-67095817D01*
X116479423Y-67248545D01*
X116486992Y-67261655D01*
X116486993Y-67261658D01*
X116486994Y-67261658D01*
X116558477Y-67385472D01*
X116558481Y-67385477D01*
X116677349Y-67504345D01*
X116677355Y-67504350D01*
X117228379Y-68055374D01*
X117228389Y-68055385D01*
X117232719Y-68059715D01*
X117232720Y-68059716D01*
X117344524Y-68171520D01*
X117344526Y-68171521D01*
X117344530Y-68171524D01*
X117426731Y-68218982D01*
X117481456Y-68250577D01*
X117500670Y-68255725D01*
X117560331Y-68292090D01*
X117590860Y-68354937D01*
X117582565Y-68424312D01*
X117538080Y-68478190D01*
X117471528Y-68499465D01*
X117468577Y-68499500D01*
X113870551Y-68499500D01*
X113803512Y-68479815D01*
X113757757Y-68427011D01*
X113747813Y-68357853D01*
X113776838Y-68294297D01*
X113797662Y-68275184D01*
X113977510Y-68144517D01*
X114144517Y-67977510D01*
X114283343Y-67786433D01*
X114390568Y-67575992D01*
X114463553Y-67351368D01*
X114477762Y-67261658D01*
X114500500Y-67118097D01*
X114500500Y-66881902D01*
X114463553Y-66648631D01*
X114406868Y-66474174D01*
X114390568Y-66424008D01*
X114390566Y-66424005D01*
X114390566Y-66424003D01*
X114299358Y-66244999D01*
X114283343Y-66213567D01*
X114144517Y-66022490D01*
X113977510Y-65855483D01*
X113786433Y-65716657D01*
X113575996Y-65609433D01*
X113351368Y-65536446D01*
X113118097Y-65499500D01*
X113118092Y-65499500D01*
X112881908Y-65499500D01*
X112881903Y-65499500D01*
X112648631Y-65536446D01*
X112424003Y-65609433D01*
X112213566Y-65716657D01*
X112128748Y-65778282D01*
X112022490Y-65855483D01*
X112022488Y-65855485D01*
X112022487Y-65855485D01*
X111855485Y-66022487D01*
X111855485Y-66022488D01*
X111855483Y-66022490D01*
X111818004Y-66074075D01*
X111724818Y-66202334D01*
X111669488Y-66244999D01*
X111599874Y-66250978D01*
X111538079Y-66218372D01*
X111503722Y-66157533D01*
X111500500Y-66129448D01*
X111500500Y-65152753D01*
X111520185Y-65085714D01*
X111572989Y-65039959D01*
X111642147Y-65030015D01*
X111689597Y-65047215D01*
X111830869Y-65134353D01*
X111830880Y-65134358D01*
X111997302Y-65189505D01*
X111997309Y-65189506D01*
X112100019Y-65199999D01*
X112224999Y-65199999D01*
X112225000Y-65199998D01*
X112225000Y-62800000D01*
X112100027Y-62800000D01*
X112100012Y-62800001D01*
X111997302Y-62810494D01*
X111830880Y-62865641D01*
X111830875Y-62865643D01*
X111689597Y-62952785D01*
X111622204Y-62971225D01*
X111555541Y-62950302D01*
X111510771Y-62896660D01*
X111500500Y-62847246D01*
X111500500Y-39870551D01*
X111520185Y-39803512D01*
X111572989Y-39757757D01*
X111642147Y-39747813D01*
X111705703Y-39776838D01*
X111724815Y-39797662D01*
X111855483Y-39977510D01*
X112022490Y-40144517D01*
X112213567Y-40283343D01*
X112304004Y-40329423D01*
X112424003Y-40390566D01*
X112424005Y-40390566D01*
X112424008Y-40390568D01*
X112544412Y-40429689D01*
X112648631Y-40463553D01*
X112881903Y-40500500D01*
X112881908Y-40500500D01*
X113118097Y-40500500D01*
X113351368Y-40463553D01*
X113575992Y-40390568D01*
X113786433Y-40283343D01*
X113977510Y-40144517D01*
X114144517Y-39977510D01*
X114283343Y-39786433D01*
X114390568Y-39575992D01*
X114463553Y-39351368D01*
X114488929Y-39191150D01*
X114500500Y-39118097D01*
X114500500Y-38881902D01*
X114463553Y-38648631D01*
X114405476Y-38469890D01*
X114390568Y-38424008D01*
X114390566Y-38424005D01*
X114390566Y-38424003D01*
X114301348Y-38248904D01*
X114283343Y-38213567D01*
X114144517Y-38022490D01*
X113977510Y-37855483D01*
X113797664Y-37724816D01*
X113755000Y-37669488D01*
X113749021Y-37599874D01*
X113781627Y-37538080D01*
X113842466Y-37503722D01*
X113870551Y-37500500D01*
X129629449Y-37500500D01*
X129696488Y-37520185D01*
G37*
%TD.AperFunction*%
%TA.AperFunction,Conductor*%
G36*
X120619946Y-45840165D02*
G01*
X120658984Y-45885218D01*
X120738713Y-46041694D01*
X120855519Y-46202464D01*
X120996036Y-46342981D01*
X121156806Y-46459787D01*
X121230433Y-46497302D01*
X121333867Y-46550005D01*
X121333870Y-46550006D01*
X121415824Y-46576634D01*
X121522864Y-46611413D01*
X121719139Y-46642500D01*
X121719140Y-46642500D01*
X121917860Y-46642500D01*
X121917861Y-46642500D01*
X122114136Y-46611413D01*
X122303132Y-46550005D01*
X122425393Y-46487709D01*
X122494060Y-46474813D01*
X122558801Y-46501089D01*
X122569368Y-46510513D01*
X123115271Y-47056416D01*
X123148756Y-47117739D01*
X123151590Y-47144097D01*
X123151590Y-48322409D01*
X123131905Y-48389448D01*
X123079101Y-48435203D01*
X123014342Y-48445699D01*
X123007845Y-48445000D01*
X122710000Y-48445000D01*
X122710000Y-52595000D01*
X123007828Y-52595000D01*
X123007834Y-52594999D01*
X123014330Y-52594301D01*
X123083090Y-52606704D01*
X123134229Y-52654312D01*
X123151590Y-52717590D01*
X123151590Y-53372409D01*
X123131905Y-53439448D01*
X123079101Y-53485203D01*
X123014342Y-53495699D01*
X123007845Y-53495000D01*
X122710000Y-53495000D01*
X122710000Y-55320000D01*
X123460000Y-55320000D01*
X123460000Y-55178597D01*
X123479685Y-55111558D01*
X123532489Y-55065803D01*
X123601647Y-55055859D01*
X123665203Y-55084884D01*
X123671681Y-55090916D01*
X123963181Y-55382416D01*
X123996666Y-55443739D01*
X123999500Y-55470097D01*
X123999500Y-57192870D01*
X123999501Y-57192876D01*
X124005908Y-57252483D01*
X124056202Y-57387328D01*
X124056206Y-57387335D01*
X124142452Y-57502544D01*
X124142455Y-57502547D01*
X124257664Y-57588793D01*
X124257671Y-57588797D01*
X124392517Y-57639091D01*
X124392516Y-57639091D01*
X124399444Y-57639835D01*
X124452127Y-57645500D01*
X125547872Y-57645499D01*
X125607483Y-57639091D01*
X125742331Y-57588796D01*
X125857546Y-57502546D01*
X125943796Y-57387331D01*
X125994091Y-57252483D01*
X126000500Y-57192873D01*
X126000499Y-53947128D01*
X125994091Y-53887517D01*
X125943884Y-53752906D01*
X125943797Y-53752671D01*
X125943793Y-53752664D01*
X125857547Y-53637455D01*
X125857544Y-53637452D01*
X125742335Y-53551206D01*
X125742328Y-53551202D01*
X125607482Y-53500908D01*
X125607483Y-53500908D01*
X125547883Y-53494501D01*
X125547881Y-53494500D01*
X125547873Y-53494500D01*
X125547865Y-53494500D01*
X124476590Y-53494500D01*
X124409551Y-53474815D01*
X124363796Y-53422011D01*
X124352590Y-53370500D01*
X124352590Y-52719499D01*
X124372275Y-52652460D01*
X124425079Y-52606705D01*
X124476585Y-52595499D01*
X125547872Y-52595499D01*
X125607483Y-52589091D01*
X125742331Y-52538796D01*
X125857546Y-52452546D01*
X125943796Y-52337331D01*
X125994091Y-52202483D01*
X126000500Y-52142873D01*
X126000499Y-48897128D01*
X125994091Y-48837517D01*
X125943884Y-48702906D01*
X125943797Y-48702671D01*
X125943793Y-48702664D01*
X125857547Y-48587455D01*
X125857544Y-48587452D01*
X125742335Y-48501206D01*
X125742328Y-48501202D01*
X125681167Y-48478391D01*
X125625233Y-48436520D01*
X125600816Y-48371056D01*
X125600500Y-48362209D01*
X125600500Y-48249097D01*
X125620185Y-48182058D01*
X125672989Y-48136303D01*
X125742147Y-48126359D01*
X125805703Y-48155384D01*
X125812177Y-48161412D01*
X126503182Y-48852418D01*
X126536666Y-48913739D01*
X126539500Y-48940097D01*
X126539500Y-52142870D01*
X126539501Y-52142876D01*
X126545908Y-52202483D01*
X126596202Y-52337328D01*
X126596206Y-52337335D01*
X126682452Y-52452544D01*
X126682455Y-52452547D01*
X126797664Y-52538793D01*
X126797671Y-52538797D01*
X126932517Y-52589091D01*
X126932516Y-52589091D01*
X126939444Y-52589835D01*
X126992127Y-52595500D01*
X127775500Y-52595499D01*
X127842539Y-52615183D01*
X127888294Y-52667987D01*
X127899500Y-52719499D01*
X127899500Y-53370500D01*
X127879815Y-53437539D01*
X127827011Y-53483294D01*
X127775500Y-53494500D01*
X126992129Y-53494500D01*
X126992123Y-53494501D01*
X126932516Y-53500908D01*
X126797671Y-53551202D01*
X126797664Y-53551206D01*
X126682455Y-53637452D01*
X126682452Y-53637455D01*
X126596206Y-53752664D01*
X126596202Y-53752671D01*
X126545908Y-53887517D01*
X126539501Y-53947116D01*
X126539501Y-53947123D01*
X126539500Y-53947135D01*
X126539500Y-57192870D01*
X126539501Y-57192876D01*
X126545908Y-57252483D01*
X126596202Y-57387328D01*
X126596206Y-57387335D01*
X126682452Y-57502544D01*
X126682455Y-57502547D01*
X126797664Y-57588793D01*
X126797671Y-57588797D01*
X126932517Y-57639091D01*
X126932516Y-57639091D01*
X126939444Y-57639835D01*
X126992127Y-57645500D01*
X128087872Y-57645499D01*
X128147483Y-57639091D01*
X128282331Y-57588796D01*
X128397546Y-57502546D01*
X128483796Y-57387331D01*
X128534091Y-57252483D01*
X128540500Y-57192873D01*
X128540499Y-55470095D01*
X128560184Y-55403057D01*
X128576813Y-55382420D01*
X128867828Y-55091406D01*
X128891278Y-55078604D01*
X128890728Y-55077504D01*
X128890734Y-55077501D01*
X128891284Y-55078601D01*
X128897180Y-55075382D01*
X128929135Y-55057932D01*
X128929146Y-55057932D01*
X128929155Y-55057928D01*
X128963331Y-55060376D01*
X128998827Y-55062913D01*
X128998835Y-55062919D01*
X128998846Y-55062920D01*
X129027210Y-55084157D01*
X129054763Y-55104781D01*
X129054766Y-55104790D01*
X129054775Y-55104797D01*
X129066560Y-55136404D01*
X129079184Y-55170244D01*
X129079500Y-55179097D01*
X129079500Y-57192870D01*
X129079501Y-57192876D01*
X129085908Y-57252483D01*
X129136202Y-57387328D01*
X129136206Y-57387335D01*
X129222452Y-57502544D01*
X129222455Y-57502547D01*
X129337664Y-57588793D01*
X129337671Y-57588797D01*
X129472517Y-57639091D01*
X129472516Y-57639091D01*
X129479444Y-57639835D01*
X129532127Y-57645500D01*
X130627872Y-57645499D01*
X130687483Y-57639091D01*
X130822331Y-57588796D01*
X130937546Y-57502546D01*
X131023796Y-57387331D01*
X131074091Y-57252483D01*
X131080500Y-57192873D01*
X131080499Y-55752939D01*
X131100184Y-55685901D01*
X131116818Y-55665259D01*
X131462077Y-55320000D01*
X131787820Y-54994257D01*
X131849142Y-54960773D01*
X131918834Y-54965757D01*
X131974767Y-55007629D01*
X131999184Y-55073093D01*
X131999500Y-55081939D01*
X131999500Y-62847246D01*
X131979815Y-62914285D01*
X131927011Y-62960040D01*
X131857853Y-62969984D01*
X131810403Y-62952785D01*
X131669124Y-62865643D01*
X131669119Y-62865641D01*
X131502697Y-62810494D01*
X131502690Y-62810493D01*
X131399986Y-62800000D01*
X131275000Y-62800000D01*
X131275000Y-65199999D01*
X131399972Y-65199999D01*
X131399986Y-65199998D01*
X131502697Y-65189505D01*
X131669119Y-65134358D01*
X131669130Y-65134353D01*
X131810403Y-65047215D01*
X131877795Y-65028774D01*
X131944459Y-65049696D01*
X131989229Y-65103338D01*
X131999500Y-65152753D01*
X131999500Y-66129448D01*
X131979815Y-66196487D01*
X131927011Y-66242242D01*
X131857853Y-66252186D01*
X131794297Y-66223161D01*
X131775182Y-66202334D01*
X131729821Y-66139901D01*
X131644517Y-66022490D01*
X131477510Y-65855483D01*
X131286433Y-65716657D01*
X131075996Y-65609433D01*
X130851368Y-65536446D01*
X130618097Y-65499500D01*
X130618092Y-65499500D01*
X130381908Y-65499500D01*
X130381903Y-65499500D01*
X130148631Y-65536446D01*
X129924003Y-65609433D01*
X129713566Y-65716657D01*
X129628748Y-65778282D01*
X129522490Y-65855483D01*
X129522488Y-65855485D01*
X129522487Y-65855485D01*
X129355485Y-66022487D01*
X129355485Y-66022488D01*
X129355483Y-66022490D01*
X129318004Y-66074075D01*
X129216657Y-66213566D01*
X129109433Y-66424003D01*
X129036446Y-66648631D01*
X128999500Y-66881902D01*
X128999500Y-67118097D01*
X129036446Y-67351368D01*
X129109433Y-67575996D01*
X129216657Y-67786433D01*
X129355483Y-67977510D01*
X129522490Y-68144517D01*
X129702335Y-68275183D01*
X129745000Y-68330512D01*
X129750979Y-68400126D01*
X129718373Y-68461920D01*
X129657534Y-68496278D01*
X129629449Y-68499500D01*
X124903665Y-68499500D01*
X124836626Y-68479815D01*
X124790871Y-68427011D01*
X124780927Y-68357853D01*
X124809952Y-68294297D01*
X124851076Y-68263204D01*
X124860992Y-68258559D01*
X124890785Y-68250577D01*
X124940904Y-68221639D01*
X125027716Y-68171520D01*
X125139520Y-68059716D01*
X125139520Y-68059714D01*
X125149728Y-68049507D01*
X125149730Y-68049504D01*
X125325478Y-67873755D01*
X125386799Y-67840272D01*
X125451473Y-67843506D01*
X125493757Y-67857246D01*
X125703713Y-67890500D01*
X125703714Y-67890500D01*
X125916286Y-67890500D01*
X125916287Y-67890500D01*
X126126243Y-67857246D01*
X126328412Y-67791557D01*
X126517816Y-67695051D01*
X126605810Y-67631120D01*
X126689786Y-67570109D01*
X126689788Y-67570106D01*
X126689792Y-67570104D01*
X126840104Y-67419792D01*
X126840106Y-67419788D01*
X126840109Y-67419786D01*
X126965048Y-67247820D01*
X126965047Y-67247820D01*
X126965051Y-67247816D01*
X127061557Y-67058412D01*
X127127246Y-66856243D01*
X127160500Y-66646287D01*
X127160500Y-66433713D01*
X127127246Y-66223757D01*
X127061557Y-66021588D01*
X126965051Y-65832184D01*
X126965049Y-65832181D01*
X126965048Y-65832179D01*
X126840109Y-65660213D01*
X126726569Y-65546673D01*
X126693084Y-65485350D01*
X126698068Y-65415658D01*
X126739940Y-65359725D01*
X126770915Y-65342810D01*
X126902331Y-65293796D01*
X127017546Y-65207546D01*
X127103796Y-65092331D01*
X127154091Y-64957483D01*
X127160500Y-64897873D01*
X127160499Y-64897844D01*
X127160678Y-64894547D01*
X127162025Y-64894619D01*
X127180137Y-64832779D01*
X127232910Y-64786987D01*
X127302061Y-64776996D01*
X127308691Y-64778129D01*
X127421155Y-64800500D01*
X127421158Y-64800500D01*
X127578844Y-64800500D01*
X127578845Y-64800499D01*
X127733497Y-64769737D01*
X127820680Y-64733624D01*
X127890147Y-64726156D01*
X127952627Y-64757431D01*
X127973670Y-64783089D01*
X128057288Y-64918656D01*
X128181344Y-65042712D01*
X128330666Y-65134814D01*
X128497203Y-65189999D01*
X128599991Y-65200500D01*
X129350008Y-65200499D01*
X129350016Y-65200498D01*
X129350019Y-65200498D01*
X129406302Y-65194748D01*
X129452797Y-65189999D01*
X129619334Y-65134814D01*
X129768656Y-65042712D01*
X129892712Y-64918656D01*
X129894752Y-64915347D01*
X129896745Y-64913555D01*
X129897193Y-64912989D01*
X129897289Y-64913065D01*
X129946694Y-64868623D01*
X130015656Y-64857395D01*
X130079740Y-64885234D01*
X130105829Y-64915339D01*
X130107681Y-64918341D01*
X130107683Y-64918344D01*
X130231654Y-65042315D01*
X130380875Y-65134356D01*
X130380880Y-65134358D01*
X130547302Y-65189505D01*
X130547309Y-65189506D01*
X130650019Y-65199999D01*
X130774999Y-65199999D01*
X130775000Y-65199998D01*
X130775000Y-62800000D01*
X130650027Y-62800000D01*
X130650012Y-62800001D01*
X130547302Y-62810494D01*
X130380880Y-62865641D01*
X130380875Y-62865643D01*
X130231654Y-62957684D01*
X130107683Y-63081655D01*
X130107679Y-63081660D01*
X130105826Y-63084665D01*
X130104018Y-63086290D01*
X130103202Y-63087323D01*
X130103025Y-63087183D01*
X130053874Y-63131385D01*
X129984911Y-63142601D01*
X129920831Y-63114752D01*
X129894753Y-63084653D01*
X129894737Y-63084628D01*
X129892712Y-63081344D01*
X129768656Y-62957288D01*
X129650368Y-62884328D01*
X129619336Y-62865187D01*
X129619331Y-62865185D01*
X129603415Y-62859911D01*
X129452797Y-62810001D01*
X129452795Y-62810000D01*
X129350010Y-62799500D01*
X128599998Y-62799500D01*
X128599980Y-62799501D01*
X128497203Y-62810000D01*
X128497200Y-62810001D01*
X128330668Y-62865185D01*
X128330663Y-62865187D01*
X128181342Y-62957289D01*
X128057288Y-63081343D01*
X128057285Y-63081347D01*
X127973669Y-63216910D01*
X127921721Y-63263635D01*
X127852759Y-63274856D01*
X127820679Y-63266374D01*
X127733501Y-63230264D01*
X127733489Y-63230261D01*
X127578845Y-63199500D01*
X127578842Y-63199500D01*
X127421158Y-63199500D01*
X127421153Y-63199500D01*
X127308690Y-63221870D01*
X127239098Y-63215643D01*
X127183921Y-63172779D01*
X127160677Y-63106889D01*
X127160599Y-63104014D01*
X127160499Y-63102135D01*
X127160499Y-63102128D01*
X127154091Y-63042517D01*
X127122450Y-62957684D01*
X127103797Y-62907671D01*
X127103793Y-62907664D01*
X127017547Y-62792455D01*
X127017544Y-62792452D01*
X126902335Y-62706206D01*
X126902328Y-62706202D01*
X126767482Y-62655908D01*
X126767483Y-62655908D01*
X126707883Y-62649501D01*
X126707881Y-62649500D01*
X126707873Y-62649500D01*
X126707864Y-62649500D01*
X124912129Y-62649500D01*
X124912123Y-62649501D01*
X124852516Y-62655908D01*
X124717671Y-62706202D01*
X124717664Y-62706206D01*
X124602455Y-62792452D01*
X124602452Y-62792455D01*
X124516206Y-62907664D01*
X124516202Y-62907671D01*
X124465908Y-63042517D01*
X124459501Y-63102116D01*
X124459501Y-63102123D01*
X124459500Y-63102135D01*
X124459500Y-63112690D01*
X124439815Y-63179729D01*
X124423181Y-63200371D01*
X123752962Y-63870590D01*
X123735925Y-63807007D01*
X123670099Y-63692993D01*
X123577007Y-63599901D01*
X123462993Y-63534075D01*
X123399409Y-63517037D01*
X124031716Y-62884728D01*
X123977550Y-62845375D01*
X123788217Y-62748904D01*
X123586129Y-62683242D01*
X123376246Y-62650000D01*
X123163754Y-62650000D01*
X122953872Y-62683242D01*
X122953869Y-62683242D01*
X122751782Y-62748904D01*
X122562439Y-62845380D01*
X122508282Y-62884727D01*
X122508282Y-62884728D01*
X123140591Y-63517037D01*
X123077007Y-63534075D01*
X122962993Y-63599901D01*
X122869901Y-63692993D01*
X122804075Y-63807007D01*
X122787037Y-63870591D01*
X122154728Y-63238282D01*
X122154727Y-63238282D01*
X122115380Y-63292440D01*
X122115376Y-63292446D01*
X122110760Y-63301505D01*
X122062781Y-63352297D01*
X121994959Y-63369087D01*
X121928826Y-63346543D01*
X121889794Y-63301493D01*
X121885051Y-63292184D01*
X121885049Y-63292181D01*
X121885048Y-63292179D01*
X121760109Y-63120213D01*
X121609786Y-62969890D01*
X121437815Y-62844948D01*
X121437814Y-62844947D01*
X121398205Y-62824765D01*
X121347409Y-62776791D01*
X121330500Y-62714281D01*
X121330500Y-61959581D01*
X121350185Y-61892542D01*
X121402989Y-61846787D01*
X121472147Y-61836843D01*
X121492815Y-61841649D01*
X121508627Y-61846787D01*
X121522863Y-61851413D01*
X121600548Y-61863717D01*
X121719139Y-61882500D01*
X121719140Y-61882500D01*
X121917860Y-61882500D01*
X121917861Y-61882500D01*
X122114136Y-61851413D01*
X122303132Y-61790005D01*
X122480194Y-61699787D01*
X122640964Y-61582981D01*
X122781481Y-61442464D01*
X122898287Y-61281694D01*
X122978015Y-61125218D01*
X123025990Y-61074423D01*
X123093811Y-61057628D01*
X123159946Y-61080165D01*
X123198984Y-61125218D01*
X123278713Y-61281694D01*
X123395519Y-61442464D01*
X123536036Y-61582981D01*
X123696806Y-61699787D01*
X123783649Y-61744035D01*
X123873867Y-61790005D01*
X123873870Y-61790006D01*
X123968366Y-61820709D01*
X124062864Y-61851413D01*
X124259139Y-61882500D01*
X124259140Y-61882500D01*
X124457860Y-61882500D01*
X124457861Y-61882500D01*
X124654136Y-61851413D01*
X124843132Y-61790005D01*
X125020194Y-61699787D01*
X125180964Y-61582981D01*
X125321481Y-61442464D01*
X125438287Y-61281694D01*
X125518015Y-61125218D01*
X125565990Y-61074423D01*
X125633811Y-61057628D01*
X125699946Y-61080165D01*
X125738984Y-61125218D01*
X125818713Y-61281694D01*
X125935519Y-61442464D01*
X126076036Y-61582981D01*
X126236806Y-61699787D01*
X126323649Y-61744035D01*
X126413867Y-61790005D01*
X126413870Y-61790006D01*
X126508366Y-61820709D01*
X126602864Y-61851413D01*
X126799139Y-61882500D01*
X126799140Y-61882500D01*
X126997860Y-61882500D01*
X126997861Y-61882500D01*
X127194136Y-61851413D01*
X127383132Y-61790005D01*
X127560194Y-61699787D01*
X127720964Y-61582981D01*
X127861481Y-61442464D01*
X127978287Y-61281694D01*
X128058015Y-61125218D01*
X128105990Y-61074423D01*
X128173811Y-61057628D01*
X128239946Y-61080165D01*
X128278984Y-61125218D01*
X128358713Y-61281694D01*
X128475519Y-61442464D01*
X128616036Y-61582981D01*
X128776806Y-61699787D01*
X128863649Y-61744035D01*
X128953867Y-61790005D01*
X128953870Y-61790006D01*
X129048366Y-61820709D01*
X129142864Y-61851413D01*
X129339139Y-61882500D01*
X129339140Y-61882500D01*
X129537860Y-61882500D01*
X129537861Y-61882500D01*
X129734136Y-61851413D01*
X129923132Y-61790005D01*
X130100194Y-61699787D01*
X130260964Y-61582981D01*
X130401481Y-61442464D01*
X130518287Y-61281694D01*
X130608505Y-61104632D01*
X130669913Y-60915636D01*
X130701000Y-60719361D01*
X130701000Y-60520639D01*
X130669913Y-60324364D01*
X130608505Y-60135368D01*
X130608505Y-60135367D01*
X130562535Y-60045149D01*
X130518287Y-59958306D01*
X130401481Y-59797536D01*
X130260964Y-59657019D01*
X130100194Y-59540213D01*
X130073917Y-59526824D01*
X129923132Y-59449994D01*
X129923129Y-59449993D01*
X129734137Y-59388587D01*
X129635998Y-59373043D01*
X129537861Y-59357500D01*
X129339139Y-59357500D01*
X129277763Y-59367221D01*
X129142862Y-59388587D01*
X128953870Y-59449993D01*
X128953867Y-59449994D01*
X128776805Y-59540213D01*
X128616033Y-59657021D01*
X128475521Y-59797533D01*
X128358713Y-59958305D01*
X128278985Y-60114780D01*
X128231010Y-60165576D01*
X128163189Y-60182371D01*
X128097054Y-60159833D01*
X128058015Y-60114780D01*
X128038679Y-60076832D01*
X127978287Y-59958306D01*
X127861481Y-59797536D01*
X127720964Y-59657019D01*
X127560194Y-59540213D01*
X127533917Y-59526824D01*
X127383132Y-59449994D01*
X127383129Y-59449993D01*
X127194137Y-59388587D01*
X127095998Y-59373043D01*
X126997861Y-59357500D01*
X126799139Y-59357500D01*
X126737763Y-59367221D01*
X126602862Y-59388587D01*
X126413870Y-59449993D01*
X126413867Y-59449994D01*
X126236805Y-59540213D01*
X126076033Y-59657021D01*
X125935521Y-59797533D01*
X125818713Y-59958305D01*
X125738985Y-60114780D01*
X125691010Y-60165576D01*
X125623189Y-60182371D01*
X125557054Y-60159833D01*
X125518015Y-60114780D01*
X125498679Y-60076832D01*
X125438287Y-59958306D01*
X125321481Y-59797536D01*
X125180964Y-59657019D01*
X125020194Y-59540213D01*
X124993917Y-59526824D01*
X124843132Y-59449994D01*
X124843129Y-59449993D01*
X124654137Y-59388587D01*
X124555998Y-59373043D01*
X124457861Y-59357500D01*
X124259139Y-59357500D01*
X124197763Y-59367221D01*
X124062862Y-59388587D01*
X123873870Y-59449993D01*
X123873867Y-59449994D01*
X123696805Y-59540213D01*
X123536033Y-59657021D01*
X123395521Y-59797533D01*
X123278713Y-59958305D01*
X123198985Y-60114780D01*
X123151010Y-60165576D01*
X123083189Y-60182371D01*
X123017054Y-60159833D01*
X122978015Y-60114780D01*
X122958679Y-60076832D01*
X122898287Y-59958306D01*
X122781481Y-59797536D01*
X122640964Y-59657019D01*
X122480194Y-59540213D01*
X122453917Y-59526824D01*
X122303132Y-59449994D01*
X122303129Y-59449993D01*
X122114137Y-59388587D01*
X122015998Y-59373043D01*
X121917861Y-59357500D01*
X121719139Y-59357500D01*
X121679884Y-59363717D01*
X121522860Y-59388587D01*
X121492817Y-59398349D01*
X121422976Y-59400344D01*
X121363144Y-59364263D01*
X121332316Y-59301562D01*
X121330500Y-59280418D01*
X121330500Y-58950945D01*
X121330500Y-58950943D01*
X121291144Y-58804064D01*
X121289577Y-58798215D01*
X121289577Y-58798214D01*
X121260639Y-58748095D01*
X121260637Y-58748092D01*
X121210520Y-58661284D01*
X121098716Y-58549480D01*
X121098715Y-58549479D01*
X121094385Y-58545149D01*
X121094374Y-58545139D01*
X120404515Y-57855280D01*
X120371030Y-57793957D01*
X120376014Y-57724265D01*
X120417886Y-57668332D01*
X120478943Y-57644309D01*
X120527483Y-57639091D01*
X120528810Y-57638596D01*
X120662331Y-57588796D01*
X120777546Y-57502546D01*
X120863796Y-57387331D01*
X120914091Y-57252483D01*
X120920500Y-57192873D01*
X120920500Y-57192844D01*
X121460000Y-57192844D01*
X121466401Y-57252372D01*
X121466403Y-57252379D01*
X121516645Y-57387086D01*
X121516649Y-57387093D01*
X121602809Y-57502187D01*
X121602812Y-57502190D01*
X121717906Y-57588350D01*
X121717913Y-57588354D01*
X121852620Y-57638596D01*
X121852627Y-57638598D01*
X121912155Y-57644999D01*
X121912172Y-57645000D01*
X122210000Y-57645000D01*
X122710000Y-57645000D01*
X123007828Y-57645000D01*
X123007844Y-57644999D01*
X123067372Y-57638598D01*
X123067379Y-57638596D01*
X123202086Y-57588354D01*
X123202093Y-57588350D01*
X123317187Y-57502190D01*
X123317190Y-57502187D01*
X123403350Y-57387093D01*
X123403354Y-57387086D01*
X123453596Y-57252379D01*
X123453598Y-57252372D01*
X123459999Y-57192844D01*
X123460000Y-57192827D01*
X123460000Y-55820000D01*
X122710000Y-55820000D01*
X122710000Y-57645000D01*
X122210000Y-57645000D01*
X122210000Y-55820000D01*
X121460000Y-55820000D01*
X121460000Y-57192844D01*
X120920500Y-57192844D01*
X120920499Y-55470097D01*
X120920499Y-53947155D01*
X121460000Y-53947155D01*
X121460000Y-55320000D01*
X122210000Y-55320000D01*
X122210000Y-53495000D01*
X121912155Y-53495000D01*
X121852627Y-53501401D01*
X121852620Y-53501403D01*
X121717913Y-53551645D01*
X121717906Y-53551649D01*
X121602812Y-53637809D01*
X121602809Y-53637812D01*
X121516649Y-53752906D01*
X121516645Y-53752913D01*
X121466403Y-53887620D01*
X121466401Y-53887627D01*
X121460000Y-53947155D01*
X120920499Y-53947155D01*
X120920499Y-53947129D01*
X120920498Y-53947123D01*
X120920497Y-53947116D01*
X120914091Y-53887517D01*
X120863884Y-53752906D01*
X120863797Y-53752671D01*
X120863793Y-53752664D01*
X120777547Y-53637455D01*
X120777544Y-53637452D01*
X120662335Y-53551206D01*
X120662328Y-53551202D01*
X120527482Y-53500908D01*
X120527483Y-53500908D01*
X120467883Y-53494501D01*
X120467881Y-53494500D01*
X120467873Y-53494500D01*
X120467864Y-53494500D01*
X119372129Y-53494500D01*
X119372123Y-53494501D01*
X119312516Y-53500908D01*
X119177671Y-53551202D01*
X119177664Y-53551206D01*
X119062455Y-53637452D01*
X119062452Y-53637455D01*
X118976206Y-53752664D01*
X118976202Y-53752671D01*
X118925908Y-53887517D01*
X118919501Y-53947116D01*
X118919501Y-53947123D01*
X118919500Y-53947135D01*
X118919500Y-56070903D01*
X118899815Y-56137942D01*
X118847011Y-56183697D01*
X118777853Y-56193641D01*
X118714297Y-56164616D01*
X118707819Y-56158584D01*
X116886819Y-54337584D01*
X116853334Y-54276261D01*
X116850500Y-54249903D01*
X116850500Y-53420408D01*
X116848646Y-53400008D01*
X116844315Y-53352343D01*
X116795512Y-53195730D01*
X116795511Y-53195727D01*
X116710651Y-53055351D01*
X116710648Y-53055347D01*
X116594652Y-52939351D01*
X116594648Y-52939348D01*
X116454272Y-52854488D01*
X116454263Y-52854485D01*
X116297664Y-52805687D01*
X116297662Y-52805686D01*
X116297657Y-52805685D01*
X116229594Y-52799500D01*
X115774500Y-52799500D01*
X115707461Y-52779815D01*
X115661706Y-52727011D01*
X115650500Y-52675500D01*
X115650500Y-51750097D01*
X115659144Y-51720656D01*
X115665668Y-51690670D01*
X115669422Y-51685654D01*
X115670185Y-51683058D01*
X115686819Y-51662416D01*
X115712417Y-51636818D01*
X115773740Y-51603333D01*
X115800098Y-51600499D01*
X116500002Y-51600499D01*
X116500008Y-51600499D01*
X116602797Y-51589999D01*
X116769334Y-51534814D01*
X116918656Y-51442712D01*
X117042712Y-51318656D01*
X117134814Y-51169334D01*
X117189999Y-51002797D01*
X117200500Y-50900009D01*
X117200499Y-50099992D01*
X117199241Y-50087681D01*
X117189999Y-49997203D01*
X117189998Y-49997200D01*
X117161871Y-49912319D01*
X117134814Y-49830666D01*
X117042712Y-49681344D01*
X116949049Y-49587681D01*
X116915564Y-49526358D01*
X116920548Y-49456666D01*
X116949049Y-49412319D01*
X116961367Y-49400001D01*
X117042712Y-49318656D01*
X117134814Y-49169334D01*
X117189999Y-49002797D01*
X117200500Y-48900009D01*
X117200500Y-48897135D01*
X118919500Y-48897135D01*
X118919500Y-52142870D01*
X118919501Y-52142876D01*
X118925908Y-52202483D01*
X118976202Y-52337328D01*
X118976206Y-52337335D01*
X119062452Y-52452544D01*
X119062455Y-52452547D01*
X119177664Y-52538793D01*
X119177671Y-52538797D01*
X119312517Y-52589091D01*
X119312516Y-52589091D01*
X119319444Y-52589835D01*
X119372127Y-52595500D01*
X120467872Y-52595499D01*
X120527483Y-52589091D01*
X120662331Y-52538796D01*
X120777546Y-52452546D01*
X120863796Y-52337331D01*
X120914091Y-52202483D01*
X120920500Y-52142873D01*
X120920500Y-52142844D01*
X121460000Y-52142844D01*
X121466401Y-52202372D01*
X121466403Y-52202379D01*
X121516645Y-52337086D01*
X121516649Y-52337093D01*
X121602809Y-52452187D01*
X121602812Y-52452190D01*
X121717906Y-52538350D01*
X121717913Y-52538354D01*
X121852620Y-52588596D01*
X121852627Y-52588598D01*
X121912155Y-52594999D01*
X121912172Y-52595000D01*
X122210000Y-52595000D01*
X122210000Y-50770000D01*
X121460000Y-50770000D01*
X121460000Y-52142844D01*
X120920500Y-52142844D01*
X120920499Y-50497204D01*
X120920499Y-48897155D01*
X121460000Y-48897155D01*
X121460000Y-50270000D01*
X122210000Y-50270000D01*
X122210000Y-48445000D01*
X121912155Y-48445000D01*
X121852627Y-48451401D01*
X121852620Y-48451403D01*
X121717913Y-48501645D01*
X121717906Y-48501649D01*
X121602812Y-48587809D01*
X121602809Y-48587812D01*
X121516649Y-48702906D01*
X121516645Y-48702913D01*
X121466403Y-48837620D01*
X121466401Y-48837627D01*
X121460000Y-48897155D01*
X120920499Y-48897155D01*
X120920499Y-48897129D01*
X120920498Y-48897123D01*
X120920497Y-48897116D01*
X120914091Y-48837517D01*
X120863884Y-48702906D01*
X120863797Y-48702671D01*
X120863793Y-48702664D01*
X120777547Y-48587455D01*
X120777544Y-48587452D01*
X120662335Y-48501206D01*
X120662328Y-48501202D01*
X120527482Y-48450908D01*
X120527483Y-48450908D01*
X120467883Y-48444501D01*
X120467881Y-48444500D01*
X120467873Y-48444500D01*
X120467864Y-48444500D01*
X119372129Y-48444500D01*
X119372123Y-48444501D01*
X119312516Y-48450908D01*
X119177671Y-48501202D01*
X119177664Y-48501206D01*
X119062455Y-48587452D01*
X119062452Y-48587455D01*
X118976206Y-48702664D01*
X118976202Y-48702671D01*
X118925908Y-48837517D01*
X118919857Y-48893806D01*
X118919501Y-48897123D01*
X118919500Y-48897135D01*
X117200500Y-48897135D01*
X117200499Y-48497204D01*
X117200499Y-48099998D01*
X117200498Y-48099980D01*
X117189999Y-47997203D01*
X117189998Y-47997200D01*
X117182074Y-47973288D01*
X117134814Y-47830666D01*
X117042712Y-47681344D01*
X116918656Y-47557288D01*
X116769334Y-47465186D01*
X116685495Y-47437404D01*
X116628051Y-47397632D01*
X116601228Y-47333116D01*
X116600500Y-47319699D01*
X116600500Y-46766500D01*
X116620185Y-46699461D01*
X116672989Y-46653706D01*
X116724500Y-46642500D01*
X116837860Y-46642500D01*
X116837861Y-46642500D01*
X117034136Y-46611413D01*
X117223132Y-46550005D01*
X117400194Y-46459787D01*
X117560964Y-46342981D01*
X117701481Y-46202464D01*
X117818287Y-46041694D01*
X117898015Y-45885218D01*
X117945990Y-45834423D01*
X118013811Y-45817628D01*
X118079946Y-45840165D01*
X118118984Y-45885218D01*
X118198713Y-46041694D01*
X118315519Y-46202464D01*
X118456036Y-46342981D01*
X118616806Y-46459787D01*
X118690433Y-46497302D01*
X118793867Y-46550005D01*
X118793870Y-46550006D01*
X118875824Y-46576634D01*
X118982864Y-46611413D01*
X119179139Y-46642500D01*
X119179140Y-46642500D01*
X119377860Y-46642500D01*
X119377861Y-46642500D01*
X119574136Y-46611413D01*
X119763132Y-46550005D01*
X119940194Y-46459787D01*
X120100964Y-46342981D01*
X120241481Y-46202464D01*
X120358287Y-46041694D01*
X120438015Y-45885218D01*
X120485990Y-45834423D01*
X120553811Y-45817628D01*
X120619946Y-45840165D01*
G37*
%TD.AperFunction*%
%TA.AperFunction,Conductor*%
G36*
X122804075Y-64192993D02*
G01*
X122869901Y-64307007D01*
X122962993Y-64400099D01*
X123077007Y-64465925D01*
X123140591Y-64482962D01*
X122539971Y-65083581D01*
X122618711Y-65200895D01*
X122619920Y-65204729D01*
X122622844Y-65207491D01*
X122630343Y-65237778D01*
X122639727Y-65267529D01*
X122638671Y-65271408D01*
X122639638Y-65275312D01*
X122629573Y-65304844D01*
X122621383Y-65334947D01*
X122618397Y-65337640D01*
X122617100Y-65341447D01*
X122572051Y-65380483D01*
X122562440Y-65385380D01*
X122508282Y-65424727D01*
X122508282Y-65424728D01*
X123140591Y-66057037D01*
X123077007Y-66074075D01*
X122962993Y-66139901D01*
X122869901Y-66232993D01*
X122804075Y-66347007D01*
X122787037Y-66410591D01*
X122154728Y-65778282D01*
X122154727Y-65778282D01*
X122115380Y-65832440D01*
X122115376Y-65832446D01*
X122110760Y-65841505D01*
X122062781Y-65892297D01*
X121994959Y-65909087D01*
X121928826Y-65886543D01*
X121889794Y-65841493D01*
X121885051Y-65832184D01*
X121885049Y-65832181D01*
X121885048Y-65832179D01*
X121760109Y-65660213D01*
X121609794Y-65509898D01*
X121609788Y-65509893D01*
X121531615Y-65453097D01*
X121528274Y-65448765D01*
X121523297Y-65446492D01*
X121507164Y-65421389D01*
X121488949Y-65397767D01*
X121487696Y-65391095D01*
X121485523Y-65387714D01*
X121480500Y-65352779D01*
X121480500Y-65187220D01*
X121500185Y-65120181D01*
X121531614Y-65086902D01*
X121609792Y-65030104D01*
X121760104Y-64879792D01*
X121760106Y-64879788D01*
X121760109Y-64879786D01*
X121845890Y-64761717D01*
X121885051Y-64707816D01*
X121889793Y-64698508D01*
X121937763Y-64647711D01*
X122005583Y-64630911D01*
X122071719Y-64653445D01*
X122110763Y-64698500D01*
X122115373Y-64707547D01*
X122154728Y-64761716D01*
X122787037Y-64129408D01*
X122804075Y-64192993D01*
G37*
%TD.AperFunction*%
%TA.AperFunction,Conductor*%
G36*
X119305270Y-64761717D02*
G01*
X119305270Y-64761716D01*
X119344622Y-64707555D01*
X119349232Y-64698507D01*
X119397205Y-64647709D01*
X119465025Y-64630912D01*
X119531161Y-64653447D01*
X119570204Y-64698504D01*
X119574949Y-64707817D01*
X119699890Y-64879786D01*
X119699896Y-64879792D01*
X119850208Y-65030104D01*
X119928384Y-65086902D01*
X119931725Y-65091233D01*
X119936703Y-65093507D01*
X119952833Y-65118606D01*
X119971051Y-65142231D01*
X119972304Y-65148904D01*
X119974477Y-65152285D01*
X119979500Y-65187220D01*
X119979500Y-65352779D01*
X119959815Y-65419818D01*
X119928385Y-65453097D01*
X119850211Y-65509893D01*
X119850205Y-65509898D01*
X119699890Y-65660213D01*
X119574949Y-65832182D01*
X119570202Y-65841499D01*
X119522227Y-65892293D01*
X119454405Y-65909087D01*
X119388271Y-65886548D01*
X119349234Y-65841495D01*
X119344626Y-65832452D01*
X119305270Y-65778282D01*
X119305269Y-65778282D01*
X118672962Y-66410589D01*
X118655925Y-66347007D01*
X118590099Y-66232993D01*
X118497007Y-66139901D01*
X118382993Y-66074075D01*
X118319407Y-66057036D01*
X118951716Y-65424728D01*
X118897550Y-65385375D01*
X118887954Y-65380486D01*
X118837157Y-65332512D01*
X118820361Y-65264692D01*
X118842897Y-65198556D01*
X118887954Y-65159514D01*
X118897554Y-65154622D01*
X118951716Y-65115270D01*
X118951717Y-65115270D01*
X118319409Y-64482962D01*
X118382993Y-64465925D01*
X118497007Y-64400099D01*
X118590099Y-64307007D01*
X118655925Y-64192993D01*
X118672962Y-64129409D01*
X119305270Y-64761717D01*
G37*
%TD.AperFunction*%
%TA.AperFunction,Conductor*%
G36*
X124423181Y-64799628D02*
G01*
X124456666Y-64860951D01*
X124459500Y-64887300D01*
X124459500Y-64897865D01*
X124459501Y-64897876D01*
X124465908Y-64957483D01*
X124516202Y-65092328D01*
X124516206Y-65092335D01*
X124602452Y-65207544D01*
X124602455Y-65207547D01*
X124717664Y-65293793D01*
X124717671Y-65293797D01*
X124849082Y-65342810D01*
X124905016Y-65384681D01*
X124929433Y-65450145D01*
X124914582Y-65518418D01*
X124893431Y-65546673D01*
X124779889Y-65660215D01*
X124654949Y-65832182D01*
X124650202Y-65841499D01*
X124602227Y-65892293D01*
X124534405Y-65909087D01*
X124468271Y-65886548D01*
X124429234Y-65841495D01*
X124424626Y-65832452D01*
X124385270Y-65778282D01*
X124385269Y-65778282D01*
X123752962Y-66410589D01*
X123735925Y-66347007D01*
X123670099Y-66232993D01*
X123577007Y-66139901D01*
X123462993Y-66074075D01*
X123399409Y-66057037D01*
X124031716Y-65424728D01*
X123977550Y-65385375D01*
X123967954Y-65380486D01*
X123917157Y-65332512D01*
X123900361Y-65264692D01*
X123922897Y-65198556D01*
X123967954Y-65159514D01*
X123977554Y-65154622D01*
X124031716Y-65115270D01*
X124031717Y-65115270D01*
X123399408Y-64482962D01*
X123462993Y-64465925D01*
X123577007Y-64400099D01*
X123670099Y-64307007D01*
X123735925Y-64192993D01*
X123752962Y-64129409D01*
X124423181Y-64799628D01*
G37*
%TD.AperFunction*%
%TA.AperFunction,Conductor*%
G36*
X117790768Y-61318715D02*
G01*
X117817864Y-61281422D01*
X117897734Y-61124669D01*
X117945708Y-61073872D01*
X118013529Y-61057077D01*
X118079664Y-61079614D01*
X118118703Y-61124667D01*
X118198713Y-61281694D01*
X118315519Y-61442464D01*
X118456036Y-61582981D01*
X118616806Y-61699787D01*
X118703649Y-61744035D01*
X118793867Y-61790005D01*
X118793870Y-61790006D01*
X118888366Y-61820709D01*
X118982864Y-61851413D01*
X119179139Y-61882500D01*
X119179140Y-61882500D01*
X119377860Y-61882500D01*
X119377861Y-61882500D01*
X119574136Y-61851413D01*
X119763132Y-61790005D01*
X119940194Y-61699787D01*
X119940196Y-61699785D01*
X119940199Y-61699784D01*
X119940707Y-61699473D01*
X119940926Y-61699413D01*
X119944535Y-61697575D01*
X119944921Y-61698332D01*
X120008152Y-61681226D01*
X120074755Y-61702340D01*
X120119370Y-61756110D01*
X120129500Y-61805198D01*
X120129500Y-62714281D01*
X120109815Y-62781320D01*
X120061795Y-62824765D01*
X120022185Y-62844947D01*
X120022184Y-62844948D01*
X119850213Y-62969890D01*
X119699890Y-63120213D01*
X119574949Y-63292182D01*
X119570202Y-63301499D01*
X119522227Y-63352293D01*
X119454405Y-63369087D01*
X119388271Y-63346548D01*
X119349234Y-63301495D01*
X119344626Y-63292452D01*
X119305270Y-63238282D01*
X119305269Y-63238282D01*
X118672962Y-63870590D01*
X118655925Y-63807007D01*
X118590099Y-63692993D01*
X118497007Y-63599901D01*
X118382993Y-63534075D01*
X118319407Y-63517036D01*
X118951716Y-62884728D01*
X118897550Y-62845375D01*
X118708217Y-62748904D01*
X118506129Y-62683242D01*
X118296246Y-62650000D01*
X118083754Y-62650000D01*
X117873872Y-62683242D01*
X117873869Y-62683242D01*
X117671782Y-62748904D01*
X117482447Y-62845376D01*
X117482445Y-62845377D01*
X117401412Y-62904250D01*
X117335605Y-62927729D01*
X117267551Y-62911903D01*
X117240847Y-62891612D01*
X116424317Y-62075082D01*
X116390832Y-62013759D01*
X116395816Y-61944067D01*
X116437688Y-61888134D01*
X116503152Y-61863717D01*
X116531397Y-61864928D01*
X116639180Y-61882000D01*
X116837821Y-61882000D01*
X117034020Y-61850924D01*
X117034023Y-61850924D01*
X117222937Y-61789542D01*
X117399925Y-61699362D01*
X117437215Y-61672268D01*
X116822593Y-61057647D01*
X116910071Y-61034208D01*
X117011430Y-60975689D01*
X117094189Y-60892930D01*
X117152708Y-60791571D01*
X117176147Y-60704094D01*
X117790768Y-61318715D01*
G37*
%TD.AperFunction*%
%TA.AperFunction,Conductor*%
G36*
X116053624Y-58612534D02*
G01*
X116105667Y-58659153D01*
X116118646Y-58687574D01*
X116154945Y-58804062D01*
X116154946Y-58804064D01*
X116239743Y-58944337D01*
X116239747Y-58944342D01*
X116355657Y-59060252D01*
X116355662Y-59060256D01*
X116495935Y-59145053D01*
X116502778Y-59148133D01*
X116501625Y-59150693D01*
X116548866Y-59182169D01*
X116576837Y-59246195D01*
X116565752Y-59315180D01*
X116519131Y-59367221D01*
X116473222Y-59384285D01*
X116442979Y-59389075D01*
X116442976Y-59389075D01*
X116254062Y-59450457D01*
X116077064Y-59540643D01*
X116039783Y-59567729D01*
X116039782Y-59567730D01*
X116654406Y-60182352D01*
X116566929Y-60205792D01*
X116465570Y-60264311D01*
X116382811Y-60347070D01*
X116324292Y-60448429D01*
X116300852Y-60535906D01*
X116298183Y-60533237D01*
X116266091Y-60477652D01*
X116235077Y-60361906D01*
X116235074Y-60361902D01*
X116235074Y-60361899D01*
X116156024Y-60224980D01*
X116156021Y-60224976D01*
X116156020Y-60224974D01*
X116044216Y-60113170D01*
X116044215Y-60113169D01*
X116039885Y-60108839D01*
X116039874Y-60108829D01*
X115323215Y-59392170D01*
X115289730Y-59330847D01*
X115294714Y-59261155D01*
X115336586Y-59205222D01*
X115373999Y-59186106D01*
X115504270Y-59145512D01*
X115505030Y-59145053D01*
X115644648Y-59060651D01*
X115644647Y-59060651D01*
X115644653Y-59060648D01*
X115760648Y-58944653D01*
X115845512Y-58804270D01*
X115881876Y-58687575D01*
X115920613Y-58629427D01*
X115984638Y-58601453D01*
X116053624Y-58612534D01*
G37*
%TD.AperFunction*%
%TA.AperFunction,Conductor*%
G36*
X118005202Y-57154883D02*
G01*
X118011680Y-57160915D01*
X120093181Y-59242416D01*
X120107884Y-59269343D01*
X120124477Y-59295162D01*
X120125368Y-59301362D01*
X120126666Y-59303739D01*
X120129500Y-59330097D01*
X120129500Y-59434801D01*
X120109815Y-59501840D01*
X120057011Y-59547595D01*
X119987853Y-59557539D01*
X119944756Y-59541991D01*
X119944535Y-59542425D01*
X119941081Y-59540665D01*
X119940723Y-59540536D01*
X119940205Y-59540219D01*
X119940195Y-59540214D01*
X119940194Y-59540213D01*
X119864883Y-59501840D01*
X119763132Y-59449994D01*
X119763129Y-59449993D01*
X119574137Y-59388587D01*
X119475998Y-59373043D01*
X119377861Y-59357500D01*
X119179139Y-59357500D01*
X119117763Y-59367221D01*
X118982862Y-59388587D01*
X118793870Y-59449993D01*
X118793867Y-59449994D01*
X118616805Y-59540213D01*
X118456033Y-59657021D01*
X118315521Y-59797533D01*
X118198713Y-59958305D01*
X118118704Y-60115331D01*
X118070729Y-60166127D01*
X118002908Y-60182922D01*
X117936773Y-60160384D01*
X117897734Y-60115331D01*
X117817858Y-59958567D01*
X117790768Y-59921283D01*
X117176147Y-60535904D01*
X117152708Y-60448429D01*
X117094189Y-60347070D01*
X117011430Y-60264311D01*
X116910071Y-60205792D01*
X116822594Y-60182352D01*
X117437216Y-59567731D01*
X117437215Y-59567730D01*
X117399932Y-59540641D01*
X117222937Y-59450457D01*
X117185804Y-59438392D01*
X117128128Y-59398954D01*
X117100930Y-59334596D01*
X117112845Y-59265749D01*
X117160089Y-59214274D01*
X117212903Y-59196970D01*
X117247561Y-59193821D01*
X117247572Y-59193818D01*
X117404060Y-59145055D01*
X117404064Y-59145053D01*
X117544337Y-59060256D01*
X117544342Y-59060252D01*
X117660252Y-58944342D01*
X117660256Y-58944337D01*
X117745052Y-58804065D01*
X117793820Y-58647562D01*
X117800000Y-58579556D01*
X117800000Y-57950000D01*
X117074000Y-57950000D01*
X117006961Y-57930315D01*
X116961206Y-57877511D01*
X116950000Y-57826000D01*
X116950000Y-57574000D01*
X116969685Y-57506961D01*
X117022489Y-57461206D01*
X117074000Y-57450000D01*
X117799999Y-57450000D01*
X117799999Y-57248596D01*
X117819684Y-57181557D01*
X117872488Y-57135802D01*
X117941646Y-57125858D01*
X118005202Y-57154883D01*
G37*
%TD.AperFunction*%
%TA.AperFunction,Conductor*%
G36*
X119014075Y-39692993D02*
G01*
X119079901Y-39807007D01*
X119172993Y-39900099D01*
X119287007Y-39965925D01*
X119350590Y-39982962D01*
X118718282Y-40615269D01*
X118718282Y-40615270D01*
X118772452Y-40654626D01*
X118782048Y-40659516D01*
X118832844Y-40707491D01*
X118849638Y-40775312D01*
X118827100Y-40841447D01*
X118782051Y-40880483D01*
X118772440Y-40885380D01*
X118718282Y-40924727D01*
X118718282Y-40924728D01*
X119350591Y-41557037D01*
X119287007Y-41574075D01*
X119172993Y-41639901D01*
X119079901Y-41732993D01*
X119014075Y-41847007D01*
X118997037Y-41910591D01*
X118364728Y-41278282D01*
X118364727Y-41278282D01*
X118325380Y-41332440D01*
X118325376Y-41332446D01*
X118320760Y-41341505D01*
X118272781Y-41392297D01*
X118204959Y-41409087D01*
X118138826Y-41386543D01*
X118099794Y-41341493D01*
X118095051Y-41332184D01*
X118095049Y-41332181D01*
X118095048Y-41332179D01*
X117970109Y-41160213D01*
X117819786Y-41009890D01*
X117647820Y-40884951D01*
X117647115Y-40884591D01*
X117639054Y-40880485D01*
X117588259Y-40832512D01*
X117571463Y-40764692D01*
X117593999Y-40698556D01*
X117639054Y-40659515D01*
X117647816Y-40655051D01*
X117702572Y-40615269D01*
X117819786Y-40530109D01*
X117819788Y-40530106D01*
X117819792Y-40530104D01*
X117970104Y-40379792D01*
X117970106Y-40379788D01*
X117970109Y-40379786D01*
X118040947Y-40282284D01*
X118095051Y-40207816D01*
X118099793Y-40198508D01*
X118147763Y-40147711D01*
X118215583Y-40130911D01*
X118281719Y-40153445D01*
X118320763Y-40198500D01*
X118325373Y-40207547D01*
X118364728Y-40261716D01*
X118997037Y-39629408D01*
X119014075Y-39692993D01*
G37*
%TD.AperFunction*%
%TD*%
M02*
