%TF.GenerationSoftware,KiCad,Pcbnew,9.0.1*%
%TF.CreationDate,2025-04-26T22:33:25+02:00*%
%TF.ProjectId,SmartSwitchTotalGenerischPC,536d6172-7453-4776-9974-6368546f7461,rev?*%
%TF.SameCoordinates,Original*%
%TF.FileFunction,Soldermask,Top*%
%TF.FilePolarity,Negative*%
%FSLAX46Y46*%
G04 Gerber Fmt 4.6, Leading zero omitted, Abs format (unit mm)*
G04 Created by KiCad (PCBNEW 9.0.1) date 2025-04-26 22:33:25*
%MOMM*%
%LPD*%
G01*
G04 APERTURE LIST*
G04 Aperture macros list*
%AMRoundRect*
0 Rectangle with rounded corners*
0 $1 Rounding radius*
0 $2 $3 $4 $5 $6 $7 $8 $9 X,Y pos of 4 corners*
0 Add a 4 corners polygon primitive as box body*
4,1,4,$2,$3,$4,$5,$6,$7,$8,$9,$2,$3,0*
0 Add four circle primitives for the rounded corners*
1,1,$1+$1,$2,$3*
1,1,$1+$1,$4,$5*
1,1,$1+$1,$6,$7*
1,1,$1+$1,$8,$9*
0 Add four rect primitives between the rounded corners*
20,1,$1+$1,$2,$3,$4,$5,0*
20,1,$1+$1,$4,$5,$6,$7,0*
20,1,$1+$1,$6,$7,$8,$9,0*
20,1,$1+$1,$8,$9,$2,$3,0*%
G04 Aperture macros list end*
%ADD10R,1.000000X3.150000*%
%ADD11RoundRect,0.250000X0.450000X-0.350000X0.450000X0.350000X-0.450000X0.350000X-0.450000X-0.350000X0*%
%ADD12RoundRect,0.250000X-0.325000X-0.450000X0.325000X-0.450000X0.325000X0.450000X-0.325000X0.450000X0*%
%ADD13RoundRect,0.175000X0.175000X-0.825000X0.175000X0.825000X-0.175000X0.825000X-0.175000X-0.825000X0*%
%ADD14RoundRect,0.250000X0.325000X0.450000X-0.325000X0.450000X-0.325000X-0.450000X0.325000X-0.450000X0*%
%ADD15R,1.700000X1.700000*%
%ADD16C,1.700000*%
%ADD17C,1.524000*%
G04 APERTURE END LIST*
D10*
%TO.C,J2*%
X119920000Y-55570000D03*
X119920000Y-50520000D03*
X122460000Y-55570000D03*
X122460000Y-50520000D03*
X125000000Y-55570000D03*
X125000000Y-50520000D03*
X127540000Y-55570000D03*
X127540000Y-50520000D03*
X130080000Y-55570000D03*
X130080000Y-50520000D03*
%TD*%
D11*
%TO.C,R2*%
X113000000Y-49000000D03*
X113000000Y-47000000D03*
%TD*%
D12*
%TO.C,D2*%
X128975000Y-64000000D03*
X131025000Y-64000000D03*
%TD*%
D13*
%TO.C,Q1*%
X115050000Y-57700000D03*
X116950000Y-57700000D03*
X116000000Y-54300000D03*
%TD*%
D14*
%TO.C,D1*%
X114525000Y-64000000D03*
X112475000Y-64000000D03*
%TD*%
D15*
%TO.C,J3*%
X125810000Y-64000000D03*
D16*
X125810000Y-66540000D03*
X123270000Y-64000000D03*
X123270000Y-66540000D03*
X120730000Y-64000000D03*
X120730000Y-66540000D03*
X118190000Y-64000000D03*
X118190000Y-66540000D03*
%TD*%
D11*
%TO.C,R1*%
X113000000Y-53000000D03*
X113000000Y-51000000D03*
%TD*%
%TO.C,R3*%
X116000000Y-50500000D03*
X116000000Y-48500000D03*
%TD*%
D15*
%TO.C,J1*%
X127100000Y-42040000D03*
D16*
X127100000Y-39500000D03*
X124560000Y-42040000D03*
X124560000Y-39500000D03*
X122020000Y-42040000D03*
X122020000Y-39500000D03*
X119480000Y-42040000D03*
X119480000Y-39500000D03*
X116940000Y-42040000D03*
X116940000Y-39500000D03*
%TD*%
D17*
%TO.C,U1*%
X114198500Y-45380000D03*
X116738500Y-45380000D03*
X119278500Y-45380000D03*
X121818500Y-45380000D03*
X124358500Y-45380000D03*
X126898500Y-45380000D03*
X129438500Y-45380000D03*
X129438500Y-60620000D03*
X126898500Y-60620000D03*
X124358500Y-60620000D03*
X121818500Y-60620000D03*
X119278500Y-60620000D03*
X116738500Y-60620000D03*
X114198500Y-60620000D03*
%TD*%
M02*
