M48
; DRILL file {KiCad 9.0.1} date 2025-04-26T22:33:23+0200
; FORMAT={-:-/ absolute / metric / decimal}
; #@! TF.CreationDate,2025-04-26T22:33:23+02:00
; #@! TF.GenerationSoftware,Kicad,Pcbnew,9.0.1
; #@! TF.FileFunction,Plated,1,2,PTH
FMAT,2
METRIC
; #@! TA.AperFunction,Plated,PTH,ViaDrill
T1C0.300
; #@! TA.AperFunction,Plated,PTH,ComponentDrill
T2C0.889
; #@! TA.AperFunction,Plated,PTH,ComponentDrill
T3C1.000
%
G90
G05
T1
X112.0Y-58.5
X112.5Y-42.0
X115.0Y-42.0
X115.5Y-66.5
X116.0Y-64.0
X117.5Y-47.5
X117.5Y-52.5
X122.0Y-58.5
X126.5Y-53.0
X127.5Y-64.0
X128.0Y-66.5
X129.5Y-58.5
T2
X114.198Y-45.38
X114.198Y-60.62
X116.738Y-45.38
X116.738Y-60.62
X119.278Y-45.38
X119.278Y-60.62
X121.819Y-45.38
X121.819Y-60.62
X124.358Y-45.38
X124.358Y-60.62
X126.898Y-45.38
X126.898Y-60.62
X129.439Y-45.38
X129.439Y-60.62
T3
X116.94Y-39.5
X116.94Y-42.04
X118.19Y-64.0
X118.19Y-66.54
X119.48Y-39.5
X119.48Y-42.04
X120.73Y-64.0
X120.73Y-66.54
X122.02Y-39.5
X122.02Y-42.04
X123.27Y-64.0
X123.27Y-66.54
X124.56Y-39.5
X124.56Y-42.04
X125.81Y-64.0
X125.81Y-66.54
X127.1Y-39.5
X127.1Y-42.04
M30
